<svg xmlns="http://www.w3.org/2000/svg" viewBox="0 0 64 64">
  <!-- Black Horse favicon - compact version -->
  <defs>
    <linearGradient id="g" x1="0" y1="0" x2="1" y2="1">
      <stop offset="0%" stop-color="#2d8cf0"/>
      <stop offset="100%" stop-color="#6366f1"/>
    </linearGradient>
  </defs>
  <rect width="64" height="64" rx="14" fill="url(#g)"/>
  <!-- Horse head silhouette white on gradient -->
  <path d="M18 50 C18 50, 16 38, 20 30 C23 24, 25 20, 27 15 C28 12, 30 9, 33 8 C36 7, 39 9, 39.5 11 C40 13, 39 15, 38 16.5 L39 16 C40 14.5, 43 13.5, 44.5 14.5 C46 15.5, 45.5 18, 44.5 19.5 C43.5 21, 41 23, 39.5 25 C38 27, 37 30, 36.5 33 C36 36, 36 39, 37 42 C38 45, 39.5 47, 41 49 L46 50"
    stroke="white" stroke-width="3.5" stroke-linecap="round" stroke-linejoin="round" fill="none"/>
  <circle cx="36" cy="16" r="1.5" fill="white"/>
  <!-- Speed lines -->
  <line x1="12" y1="32" x2="16" y2="32" stroke="white" stroke-width="2" stroke-linecap="round" opacity="0.5"/>
  <line x1="10" y1="37" x2="16" y2="37" stroke="white" stroke-width="2" stroke-linecap="round" opacity="0.4"/>
  <line x1="11" y1="42" x2="16" y2="42" stroke="white" stroke-width="2" stroke-linecap="round" opacity="0.3"/>
</svg>
