<svg xmlns="http://www.w3.org/2000/svg" viewBox="0 0 200 200" fill="currentColor">
  <!-- Horse head profile - clean emoji-style 🐎 -->
  <path d="
    M 130 25
    C 125 20, 115 18, 110 22
    C 105 26, 108 32, 112 35
    L 108 38
    C 100 35, 90 38, 85 45
    C 78 55, 72 70, 68 85
    C 64 100, 62 115, 65 130
    C 67 140, 72 148, 78 155
    C 82 160, 88 163, 95 165
    L 110 170
    C 115 171, 118 168, 118 164
    L 118 158
    C 120 155, 118 150, 115 148
    C 112 145, 108 140, 105 135
    L 105 125
    C 115 130, 125 128, 132 122
    C 138 116, 142 108, 144 100
    C 146 90, 145 80, 140 72
    C 135 62, 128 58, 125 55
    C 128 50, 132 45, 138 42
    C 142 40, 145 35, 142 30
    C 140 27, 135 25, 130 25
    Z"
  />
  <!-- Ear -->
  <path d="
    M 112 35
    C 115 28, 120 22, 118 18
    C 116 14, 110 16, 108 20
    C 106 24, 108 30, 112 35
    Z"
  />
  <!-- Eye -->
  <circle cx="108" cy="72" r="6" fill="white"/>
  <circle cx="109" cy="71" r="3" fill="currentColor"/>
  <!-- Nostril -->
  <ellipse cx="82" cy="148" rx="4" ry="5" fill="white" opacity="0.4"/>
  <!-- Mane -->
  <path d="
    M 130 25
    C 135 30, 140 40, 138 50
    C 136 55, 130 58, 128 62
    C 140 55, 150 52, 155 48
    C 148 58, 140 65, 135 72
    C 145 68, 152 66, 158 65
    C 152 72, 144 78, 138 82
    C 146 80, 152 80, 156 82
    C 150 88, 144 92, 140 95
    Z"
    opacity="0.7"
  />
</svg>
